<svg width="108" height="123" viewBox="0 0 108 123" fill="none" xmlns="http://www.w3.org/2000/svg">
<g clip-path="url(#clip0_131_34)">
<path fill-rule="evenodd" clip-rule="evenodd" d="M45.23 107.74L37.67 110.58L45.23 113.46V120.12L35.23 114.45C30.85 111.97 30.81 109.26 35.23 106.76L45.23 101.08V107.74ZM39.3 76.42C46.58 84.6 63.07 83.16 69.16 76.42C67.6361 74.6096 66.2267 72.7059 64.94 70.72L64.1 69.5C61.113 71.5197 57.5751 72.5675 53.97 72.5C49.918 72.5298 45.9886 71.1112 42.89 68.5C42.06 70.98 40.89 74.39 39.67 76.02C39.5646 76.1571 39.44 76.2784 39.3 76.38V76.42ZM67.64 90.92H9.99998C9.43723 90.9502 8.8872 91.0989 8.38595 91.3565C7.8847 91.6141 7.44354 91.9747 7.09137 92.4146C6.7392 92.8546 6.48397 93.364 6.34242 93.9095C6.20087 94.455 6.17618 95.0243 6.26998 95.58L9.79998 122.88H0.799978C0.799978 108.3 -4.37002 90.42 10.89 81.88C16.57 78.71 31.21 77.64 37.59 73.45C38.6578 71.1563 39.5634 68.7905 40.3 66.37C40.37 66.15 40.25 66.51 40.36 66.18C38.0694 63.5654 36.0273 60.7432 34.26 57.75L29 49.42C27.07 46.55 26.07 43.92 26 41.77C25.9666 40.8144 26.162 39.8647 26.57 39C26.9665 38.1454 27.5933 37.4182 28.38 36.9C28.7785 36.6379 29.2043 36.42 29.65 36.25C29.2861 31.2586 29.2026 26.2507 29.4 21.25C29.5207 20.0971 29.7381 18.9564 30.05 17.84C32 11 37.89 5.99998 44.65 3.65998C47.93 2.52998 46.66 -0.170019 50 -1.86656e-05C57.86 0.429981 70 5.48998 74.63 10.86C81.15 18.38 79.47 27.64 79.25 36.86C79.922 37.0377 80.533 37.395 81.0175 37.8936C81.5019 38.3921 81.8416 39.0131 82 39.69C82.42 41.35 82 43.69 80.55 46.88C80.55 46.88 80.55 46.99 80.46 47.05L74.46 56.92C72.15 60.73 69.8 64.54 66.67 67.48L66.51 67.62L67.51 69.02C68.51 70.55 69.73 72.29 70.83 73.65C77.35 77.65 91.68 78.79 97.29 81.91C111.29 89.73 106.52 109.04 107.29 122.91H98.38L101.91 95.61C102.004 95.0543 101.979 94.485 101.838 93.9395C101.696 93.3941 101.441 92.8846 101.089 92.4446C100.736 92.0047 100.295 91.6441 99.794 91.3865C99.2928 91.1289 98.7427 90.9802 98.18 90.95H67.64V90.92ZM32.64 38.71C31.7145 38.7033 30.8038 38.9413 30 39.4C29.6723 39.6198 29.4098 39.9238 29.24 40.28C29.0556 40.7261 28.9736 41.208 29 41.69C29.05 43.29 29.89 45.38 31.51 47.79L36.77 56.16C38.88 59.51 41.1 62.93 43.84 65.44C46.5555 68.091 50.205 69.5673 54 69.55C55.9723 69.5865 57.9323 69.2304 59.7658 68.5025C61.5993 67.7746 63.2697 66.6894 64.68 65.31C67.52 62.65 69.75 59.02 71.96 55.38L77.88 45.62C78.99 43.1 79.39 41.41 79.14 40.43C78.99 39.84 78.34 39.55 77.23 39.49C76.99 39.49 76.75 39.49 76.51 39.49C76.2335 39.4756 75.9565 39.4756 75.68 39.49C75.5273 39.5102 75.3726 39.5102 75.22 39.49C74.6783 39.5143 74.1356 39.4842 73.6 39.4L75.6 30.4C60.54 32.77 49.27 21.58 33.35 28.16L34.5 38.79C33.8922 38.8249 33.2824 38.7981 32.68 38.71H32.64ZM62.21 107.71L69.77 110.55L62.21 113.43V120.09L72.21 114.42C76.59 111.94 76.62 109.23 72.21 106.73L62.21 101.05V107.71ZM53.58 122H48.58L54.76 97.94H59.76L53.58 122Z" fill="#F5F3EF"/>
</g>
<defs>
<clipPath id="clip0_131_34">
<rect width="107.47" height="122.88" fill="white"/>
</clipPath>
</defs>
</svg>
