<svg width="20" height="19" viewBox="0 0 20 19" fill="none" xmlns="http://www.w3.org/2000/svg">
<path d="M9.99121 18.7598C14.9746 18.7598 19.0879 14.6465 19.0879 9.66309C19.0879 4.68848 14.9658 0.575195 9.98242 0.575195C5.00781 0.575195 0.90332 4.68848 0.90332 9.66309C0.90332 14.6465 5.0166 18.7598 9.99121 18.7598ZM9.99121 10.085C9.83301 10.085 9.66602 10.0234 9.48145 9.84766L5.64941 5.99805C5.77246 5.91016 6.03613 5.83105 6.40527 5.83105H13.5684C13.9463 5.83105 14.21 5.91016 14.333 5.99805L10.4922 9.84766C10.3164 10.0146 10.1582 10.085 9.99121 10.085ZM8.24219 9.6543L5.1748 12.7217C5.10449 12.6074 5.06934 12.3877 5.06934 12.0713V7.25488C5.06934 6.92969 5.11328 6.70996 5.1748 6.5957L8.24219 9.6543ZM11.7227 9.6543L14.79 6.5957C14.8516 6.70996 14.8867 6.92969 14.8867 7.25488V12.0713C14.8867 12.3877 14.8516 12.6074 14.79 12.7217L11.7227 9.6543ZM9.98242 10.8408C10.3164 10.8408 10.5713 10.7178 10.9053 10.4102L11.1689 10.1641L14.333 13.3281C14.21 13.4336 13.9463 13.4951 13.5684 13.4951H6.40527C6.01855 13.4951 5.76367 13.4336 5.64062 13.3281L8.7959 10.1641L9.06836 10.4102C9.40234 10.7178 9.65723 10.8408 9.98242 10.8408Z" fill="#1C1C1E"/>
</svg>
