<svg width="123" height="85" viewBox="0 0 123 85" fill="none" xmlns="http://www.w3.org/2000/svg">
<g clip-path="url(#clip0_129_31)">
<path fill-rule="evenodd" clip-rule="evenodd" d="M37.5399 0H120.35C121.7 0 122.81 1.11 122.81 2.46V16.89H122.88V68.79V71.67V72.29H39.5099V68.79H119.38V17.5H32.6099V4.93C32.6099 2.22 34.8299 0 37.5399 0ZM0.00991953 41.38C-0.30008 35.58 4.45992 34.1 10.9099 34.48L19.0499 43.55L27.0199 34.6L46.7599 34.49C54.2199 35.34 52.6499 43.14 46.7599 43.47H33.8399L30.7999 61.73L28.4999 80.27C27.8999 82.23 26.6999 83.51 24.9699 84.17L13.7399 84.25C11.4799 83.91 10.1299 82.59 9.72992 80.27L7.97992 63.76C3.37992 64.2 1.83992 60.94 1.35992 56.22L0.00991953 41.38ZM18.5599 9.77C24.0899 9.77 28.5699 14.25 28.5699 19.78C28.5699 25.31 24.0899 29.79 18.5599 29.79C13.0299 29.79 8.54992 25.31 8.54992 19.78C8.53992 14.26 13.0299 9.77 18.5599 9.77ZM18.9399 39.29L12.5999 32.34L14.4699 30.85C17.2199 32 19.9499 32 22.6499 30.85L25.2099 32.37L18.9399 39.29ZM66.0399 4.48C68.0499 4.48 69.6799 6.11 69.6799 8.12C69.6799 10.13 68.0499 11.76 66.0399 11.76C64.0299 11.76 62.3999 10.13 62.3999 8.12C62.3999 6.11 64.0299 4.48 66.0399 4.48ZM45.3299 4.48C47.3399 4.48 48.9699 6.11 48.9699 8.12C48.9699 10.13 47.3399 11.76 45.3299 11.76C43.3199 11.76 41.6899 10.13 41.6899 8.12C41.6899 6.11 43.3199 4.48 45.3299 4.48ZM55.6799 4.48C57.6899 4.48 59.3199 6.11 59.3199 8.12C59.3199 10.13 57.6899 11.76 55.6799 11.76C53.6699 11.76 52.0399 10.13 52.0399 8.12C52.0399 6.11 53.6699 4.48 55.6799 4.48ZM109.11 6.13C108.74 5.76 108.74 5.15 109.11 4.78C109.48 4.41 110.09 4.41 110.46 4.78L112.46 6.78L114.46 4.78C114.83 4.41 115.44 4.41 115.81 4.78C116.18 5.15 116.18 5.76 115.81 6.13L113.81 8.13L115.81 10.13C116.18 10.5 116.18 11.11 115.81 11.48C115.44 11.85 114.83 11.85 114.46 11.48L112.46 9.48L110.46 11.48C110.09 11.85 109.48 11.85 109.11 11.48C108.74 11.11 108.74 10.5 109.11 10.13L111.11 8.13L109.11 6.13Z" fill="#F5F3EF"/>
</g>
<defs>
<clipPath id="clip0_129_31">
<rect width="122.88" height="84.25" fill="white"/>
</clipPath>
</defs>
</svg>
